<svg id="Слой_1" data-name="Слой 1" xmlns="http://www.w3.org/2000/svg" viewBox="0 0 10 7.5"><defs><style>.cls-1{fill:#de2726;}</style></defs><path class="cls-1" d="M296.64,421.22c-2.59-1.88-2.79-2.05-3.39-2.52a.47.47,0,0,1-.18-.37V418A.94.94,0,0,1,294,417h8.13a.93.93,0,0,1,.93.93v.37a.43.43,0,0,1-.18.37c-.59.47-.79.64-3.38,2.52-.33.24-1,.81-1.44.81S297,421.46,296.64,421.22Zm6.43-1.63v4a.94.94,0,0,1-.93.94H294a.94.94,0,0,1-.94-.94v-4a.12.12,0,0,1,.19-.1c.44.34,1,.78,3,2.22.42.3,1.11.94,1.8.93a3.49,3.49,0,0,0,1.81-.93c2-1.44,2.57-1.88,3-2.22A.11.11,0,0,1,303.07,419.59Z" transform="translate(-293.07 -417.03)"/></svg>