<svg id="Слой_1" data-name="Слой 1" xmlns="http://www.w3.org/2000/svg" viewBox="0 0 14.01 14"><defs><style>.cls-1{fill:#de2726;}</style></defs><path class="cls-1" d="M305,423.66a4.18,4.18,0,0,1-1.13,2.94,4.14,4.14,0,0,1-2.94,1.13c-1.15.06-4.62.06-5.77,0a4.18,4.18,0,0,1-2.94-1.13,4.14,4.14,0,0,1-1.13-2.94c-.07-1.15-.07-4.62,0-5.77a3.88,3.88,0,0,1,4.07-4.07c1.15-.06,4.62-.06,5.77,0A4.23,4.23,0,0,1,303.9,415a4.16,4.16,0,0,1,1.13,2.94C305.09,419,305.09,422.51,305,423.66Zm-1.21-2.88a15.67,15.67,0,0,0-.28-4.13,2.34,2.34,0,0,0-1.34-1.33,30.53,30.53,0,0,0-8.25,0,2.32,2.32,0,0,0-1.33,1.33,30.53,30.53,0,0,0,0,8.25,2.37,2.37,0,0,0,1.33,1.34,30.53,30.53,0,0,0,8.25,0,2.39,2.39,0,0,0,1.34-1.34A15.6,15.6,0,0,0,303.82,420.78Zm-2.15,0a3.59,3.59,0,1,1-3.59-3.59A3.59,3.59,0,0,1,301.67,420.78Zm-1.26,0a2.34,2.34,0,1,0-2.33,2.33A2.34,2.34,0,0,0,300.41,420.78Zm1.4-2.9a.84.84,0,1,1,.84-.84A.84.84,0,0,1,301.81,417.88Z" transform="translate(-291.07 -413.77)"/></svg>