<svg id="Слой_1" data-name="Слой 1" xmlns="http://www.w3.org/2000/svg" viewBox="0 0 7.07 12.57"><defs><style>.cls-1{fill:#de2726;}</style></defs><path class="cls-1" d="M301.61,418a3.54,3.54,0,1,1-3.54-3.53A3.53,3.53,0,0,1,301.61,418Zm-3.24-2a.29.29,0,0,0-.3-.29,2.25,2.25,0,0,0-2.25,2.25.29.29,0,0,0,.29.3.3.3,0,0,0,.3-.3,1.66,1.66,0,0,1,1.66-1.67A.29.29,0,0,0,298.37,416Zm-.3,6.29a4.07,4.07,0,0,0,.79-.08v3.85l-.54.81a.3.3,0,0,1-.49,0l-.54-.81v-3.85A4,4,0,0,0,298.07,422.33Z" transform="translate(-294.54 -414.47)"/></svg>