<svg id="Слой_1" data-name="Слой 1" xmlns="http://www.w3.org/2000/svg" viewBox="0 0 19.98 19.98"><defs><style>.cls-1{fill:#e03132;}</style></defs><path class="cls-1" d="M308.06,414.13a3.14,3.14,0,0,0-3.36-3.34q-6.68,0-13.35,0a3.13,3.13,0,0,0-3.26,3.2q0,6.78,0,13.56a3.13,3.13,0,0,0,3.22,3.21h13.52a3.14,3.14,0,0,0,3.24-3.27v-6.72Q308.07,417.46,308.06,414.13Zm-.89,13.29a2.21,2.21,0,0,1-2.43,2.44H291.38a2.21,2.21,0,0,1-2.39-2.4q0-6.66,0-13.32a2.22,2.22,0,0,1,2.45-2.46h13.32a2.39,2.39,0,0,1,1.47.4,2.3,2.3,0,0,1,.94,2.06Z" transform="translate(-288.09 -410.79)"/><path class="cls-1" d="M298.79,418c-.22-.22-.45-.35-.7-.1s-.14.51.09.74a21.87,21.87,0,0,1,1.6,1.7H294a1.08,1.08,0,0,0-.48,0,.74.74,0,0,0-.36.45c0,.12.21.3.36.4s.27,0,.4,0h5.89l0,.11c-.53.53-1.08,1.05-1.59,1.59a.73.73,0,0,0-.23.52.45.45,0,0,0,.78.25c.87-.85,1.72-1.71,2.57-2.58a.45.45,0,0,0-.06-.69Z" transform="translate(-288.09 -410.79)"/><path class="cls-1" d="M303.08,418.28c0-.32-.09-.57-.44-.56s-.46.24-.46.55v5c0,.33.09.59.45.6s.45-.28.45-.6Q303.07,420.76,303.08,418.28Z" transform="translate(-288.09 -410.79)"/></svg>