<svg id="Слой_1" data-name="Слой 1" xmlns="http://www.w3.org/2000/svg" viewBox="0 0 26.95 26.95"><defs><style>.cls-1{fill:#dd2525;}</style></defs><path class="cls-1" d="M284.6,420.77v-8.95a4.24,4.24,0,0,1,4.53-4.52h18a4.22,4.22,0,0,1,4.39,4.33q0,9.14,0,18.29a4.21,4.21,0,0,1-4.34,4.32H289a4.23,4.23,0,0,1-4.36-4.41Zm13.53-12.26h-9.07a3.27,3.27,0,0,0-2,.53,3.13,3.13,0,0,0-1.27,2.79c0,6,0,11.94,0,17.91a3,3,0,0,0,3.29,3.3h18a3,3,0,0,0,3.22-3.24q0-9,0-18a3,3,0,0,0-3.3-3.32Z" transform="translate(-284.6 -407.3)"/><path class="cls-1" d="M295.76,421.53c.72.71,1.45,1.41,2.15,2.14a1.06,1.06,0,0,1,.31.7.6.6,0,0,1-1.05.34c-1.18-1.15-2.33-2.31-3.48-3.48a.62.62,0,0,1,.08-.93l3.34-3.3c.29-.29.6-.47.95-.13s.19.69-.13,1a28,28,0,0,0-2.15,2.3h7.86a1.38,1.38,0,0,1,.65,0,1,1,0,0,1,.48.6c0,.17-.28.4-.49.53s-.35,0-.54,0H295.8Z" transform="translate(-284.6 -407.3)"/><path class="cls-1" d="M292.54,420.77c0,1.1,0,2.21,0,3.31,0,.45-.12.8-.61.81s-.6-.37-.6-.8V417.4c0-.42.11-.76.59-.75s.62.32.62.75Z" transform="translate(-284.6 -407.3)"/></svg>