<svg id="Слой_1" data-name="Слой 1" xmlns="http://www.w3.org/2000/svg" viewBox="0 0 6.97 7.84"><defs><style>.cls-1{fill:#e13333;}</style></defs><path class="cls-1" d="M301.31,416.92a.41.41,0,0,0-.46.05l-4.35,3.48a.42.42,0,0,0,0,.68l4.35,3.48a.41.41,0,0,0,.27.1.58.58,0,0,0,.19,0,.46.46,0,0,0,.25-.4v-7A.43.43,0,0,0,301.31,416.92Zm-.62,6.45-3.22-2.58,3.22-2.58Z" transform="translate(-294.59 -416.87)"/><path class="cls-1" d="M295,417.31a.44.44,0,0,0-.44.43v6.1a.44.44,0,0,0,.44.43.43.43,0,0,0,.43-.43v-6.1A.43.43,0,0,0,295,417.31Z" transform="translate(-294.59 -416.87)"/></svg>