<svg id="Слой_1" data-name="Слой 1" xmlns="http://www.w3.org/2000/svg" viewBox="0 0 5.96 5.96"><defs><style>.cls-1{fill:#fff;}</style></defs><path class="cls-1" d="M298.54,420.77l.09.1,2.25,2.25a.63.63,0,0,1,.11.12.32.32,0,0,1-.46.44l-.11-.1-2.24-2.24-.11-.1-.1.1-2.24,2.24a.63.63,0,0,1-.12.11.31.31,0,0,1-.42,0,.3.3,0,0,1,0-.42l.09-.11,2.25-2.24.1-.11-.1-.1-2.26-2.27a.66.66,0,0,1-.15-.22.3.3,0,0,1,.14-.33.32.32,0,0,1,.35,0,.69.69,0,0,1,.13.11L298,420.2l.1.11.11-.1,2.26-2.26a.61.61,0,0,1,.23-.15.3.3,0,0,1,.32.13.33.33,0,0,1,0,.37l-.12.12-2.24,2.25Z" transform="translate(-295.09 -417.79)"/></svg>