<svg id="Слой_1" data-name="Слой 1" xmlns="http://www.w3.org/2000/svg" viewBox="0 0 62.16 55.4"><defs><style>.cls-1{fill:#dc2725;}</style></defs><path d="M322.44,423.18l-3.74-1.11c-.17.58-.35,1.16-.52,1.74-.57,1.87-1.15,3.8-1.7,5.7a1.54,1.54,0,0,1-1.66,1.28h0c-5.43,0-10.95,0-16.28,0H285.37a1.28,1.28,0,0,1-1.46-1.17c-.15-1.26-.34-2.55-.52-3.79l-.12-.83-.87-6.05-.84-5.91c-.15-1-.29-2-.43-3.06l-.33-2.37h22.43v-3.89h-23L278.69,393H267v3.86h8.19l.16.56a.31.31,0,0,1,0,.08,1.2,1.2,0,0,1,.06.24c.24,1.69.48,3.39.73,5.08q.58,4.2,1.19,8.38c.29,2,.59,4.08.88,6.12.82,5.69,1.67,11.57,2.48,17.37,1.12,0,2.26,0,3.36,0H319c.81-2.8,1.67-5.64,2.49-8.38Z" transform="translate(-267 -392.98)"/><path d="M324.86,439.1H280.52V443h5.73l-.22.93a3.25,3.25,0,0,0,1.33,3.87,3,3,0,0,0,3.57,0,3.25,3.25,0,0,0,1.37-3.88l-.21-.93h21.17l-.21.93a3.3,3.3,0,0,0,1.33,3.86,3,3,0,0,0,3.43.11c1.46-.85,1.94-2.13,1.52-4l-.2-.92h5.73Z" transform="translate(-267 -392.98)"/><polygon class="cls-1" points="59.36 21.58 62.16 18.8 55.94 12.63 62.04 6.55 59.31 3.79 53.17 9.98 47.1 3.84 44.33 6.62 50.53 12.8 44.46 18.86 47.12 21.52 53.21 15.39 59.36 21.58"/></svg>