<svg id="Слой_1" data-name="Слой 1" xmlns="http://www.w3.org/2000/svg" viewBox="0 0 18.8 18.13"><defs><style>.cls-1{fill:#fff;}</style></defs><path class="cls-1" d="M305.43,425.81H293.75a.39.39,0,0,1-.4-.4.41.41,0,0,1,.37-.41l11.82-1.88a.67.67,0,0,0,.55-.55l1.35-7.38a.68.68,0,0,0-1.33-.24l-.14.79H293.12l0-.05A2.77,2.77,0,0,0,293,413a2.73,2.73,0,0,0-2.33-1.29h-1.34a.67.67,0,0,0-.67.67.68.68,0,0,0,.67.68h1.34a1.42,1.42,0,0,1,1.29,2l-.54,1v0a.83.83,0,0,0,0,.15.5.5,0,0,0,0,.12s0,0,0,0a.5.5,0,0,0,0,.13s0,.07,0,.1l2.54,7-.38.06a1.75,1.75,0,0,0-1.53,1.74,1.73,1.73,0,0,0,.9,1.52,1.93,1.93,0,0,0-.22.9,2,2,0,0,0,4,0,2,2,0,0,0-.12-.68h4.95a2,2,0,0,0-.13.68,2,2,0,0,0,4,0,2.21,2.21,0,0,0-.12-.68h.12a.67.67,0,0,0,0-1.34ZM293,417.08h12.77l-.87,4.79-9.6,1.52Zm2.4,10.75a.67.67,0,0,1-1.34,0,.67.67,0,1,1,1.34,0Zm8.73,0a.67.67,0,0,1-1.34,0,.67.67,0,1,1,1.34,0Z" transform="translate(-288.65 -411.71)"/></svg>