<svg id="Слой_1" data-name="Слой 1" xmlns="http://www.w3.org/2000/svg" viewBox="0 0 31.04 29.93"><defs><style>.cls-1{fill:#010101;}</style></defs><path class="cls-1" d="M310.22,429.09H290.93a.64.64,0,0,1-.66-.67.7.7,0,0,1,.62-.68l19.51-3.1a1.09,1.09,0,0,0,.91-.89l2.22-12.2a1.11,1.11,0,1,0-2.18-.39l-.24,1.3H289.9l0-.07a4.63,4.63,0,0,0-.25-4.46,4.53,4.53,0,0,0-3.85-2.12h-2.22a1.11,1.11,0,0,0,0,2.22h2.22a2.31,2.31,0,0,1,2,1.09,2.33,2.33,0,0,1,.15,2.27l-.89,1.66a.11.11,0,0,1,0,.05,1,1,0,0,0-.07.24,1.62,1.62,0,0,0,0,.19s0,0,0,0a.79.79,0,0,0,.05.22.88.88,0,0,0,0,.16l4.18,11.5-.61.1a2.89,2.89,0,0,0-2.53,2.87,2.83,2.83,0,0,0,1.47,2.51,3.37,3.37,0,0,0-.36,1.48,3.33,3.33,0,1,0,6.45-1.1h8.16a3.33,3.33,0,1,0,6.25,0h.2a1.11,1.11,0,0,0,0-2.22Zm-20.58-14.41h21.07l-1.44,7.9-15.85,2.52Zm3.95,17.73a1.11,1.11,0,1,1-1.1-1.1A1.1,1.1,0,0,1,293.59,432.41Zm14.41,0a1.11,1.11,0,1,1-1.1-1.1A1.1,1.1,0,0,1,308,432.41Z" transform="translate(-282.51 -405.81)"/></svg>