<svg id="Слой_1" data-name="Слой 1" xmlns="http://www.w3.org/2000/svg" viewBox="0 0 12.89 12.89"><defs><style>.cls-1{fill:#dd2525;}</style></defs><path class="cls-1" d="M303.31,417.4H304a.5.5,0,0,0,.41-.22.42.42,0,0,0,0-.42.45.45,0,0,0-.48-.24h-3.3v-.43q0-.34,0-.66a1,1,0,0,0-1.08-1.1h-3.09a1,1,0,0,0-1.07,1.06v1.13h-3.21a.63.63,0,0,0-.61.3v.3a.62.62,0,0,0,.66.29h1v.4c0,.73,0,1.45,0,2.18,0,1.93,0,3.93,0,5.89a1.25,1.25,0,0,0,.79,1.35h8a1.26,1.26,0,0,0,.79-1.35c0-2,0-4,0-5.89V417.4h.44Zm-7-2.17h3.46v1.27h-3.46Zm5.56,11a.45.45,0,0,1-.33.1h-7.06a.31.31,0,0,1-.38-.35c0-2.11,0-4.26,0-6.34v-2.24H302v2.13c0,2.09,0,4.25,0,6.38A.42.42,0,0,1,301.9,426.25Z" transform="translate(-291.62 -414.33)"/><path class="cls-1" d="M298.51,419.76a.46.46,0,0,0-.44-.52h0a.4.4,0,0,0-.29.11.56.56,0,0,0-.15.41q0,.45,0,.9v1.22c0,.68,0,1.4,0,2.1a.55.55,0,0,0,.16.41.39.39,0,0,0,.32.1c.26,0,.41-.21.41-.52v-4.21Z" transform="translate(-291.62 -414.33)"/><path class="cls-1" d="M296.32,419.76a.46.46,0,0,0-.43-.52h0a.41.41,0,0,0-.3.12.51.51,0,0,0-.14.38V424a.46.46,0,0,0,.44.52.41.41,0,0,0,.3-.12.58.58,0,0,0,.14-.41v-4.21Z" transform="translate(-291.62 -414.33)"/><path class="cls-1" d="M299.8,424a.55.55,0,0,0,.15.38.41.41,0,0,0,.3.12.45.45,0,0,0,.43-.5c0-1.59,0-3,0-4.26a.54.54,0,0,0-.07-.29.4.4,0,0,0-.37-.21h-.1a.47.47,0,0,0-.34.46V424Z" transform="translate(-291.62 -414.33)"/></svg>