<svg id="Слой_1" data-name="Слой 1" xmlns="http://www.w3.org/2000/svg" viewBox="0 0 14.3 17.98"><defs><style>.cls-1{fill:#fff;}</style></defs><path class="cls-1" d="M296.88,428.34H296c-.81,0-1.65,0-2.47,0a1.24,1.24,0,0,1-.87-.33,1.1,1.1,0,0,1-.29-.82c0-.71.48-1.11,1.29-1.11h11.59V411.8H293.69a2.52,2.52,0,0,0-2.76,2.76c0,4.26,0,8.45,0,12.46a2.51,2.51,0,0,0,2.77,2.75h11.53v-1.42Zm-4.54-13.77c0-1,.36-1.36,1.34-1.36h10.14v11.48H292.37l0-.23a2,2,0,0,1,0-.27C292.34,421,292.33,417.79,292.34,414.57Z" transform="translate(-290.93 -411.79)"/><rect class="cls-1" x="4.65" y="3.69" width="5.04" height="1.37"/><rect class="cls-1" x="4.62" y="7.41" width="5.07" height="1.34"/></svg>