<svg id="Слой_1" data-name="Слой 1" xmlns="http://www.w3.org/2000/svg" viewBox="0 0 9.64 11.94"><defs><style>.cls-1{fill:#e2313a;}</style></defs><path class="cls-1" d="M303.19,418.83a4.81,4.81,0,1,0-9,3.11,11.52,11.52,0,0,0,1.79,2.31c.81.89,1.64,1.77,2.46,2.64l.1-.06c1.25-1.38,2.54-2.72,3.73-4.15A4.41,4.41,0,0,0,303.19,418.83Zm-1.5,3.15c-1,1.3-2.1,2.47-3.19,3.73-.78-.86-1.53-1.66-2.25-2.47a13.09,13.09,0,0,1-1.05-1.31,3.91,3.91,0,0,1,2.81-6.08,3.7,3.7,0,0,1,3.83,1.88A3.6,3.6,0,0,1,301.69,422Z" transform="translate(-293.65 -414.95)"/><path class="cls-1" d="M298.49,417.83a1.92,1.92,0,0,0-.09,3.84,1.89,1.89,0,0,0,2-1.88A1.91,1.91,0,0,0,298.49,417.83Zm0,3a1,1,0,0,1-1.05-1.05,1,1,0,0,1,1.06-1.06,1.06,1.06,0,0,1,0,2.11Z" transform="translate(-293.65 -414.95)"/></svg>