<svg id="Слой_1" data-name="Слой 1" xmlns="http://www.w3.org/2000/svg" viewBox="0 0 17.98 17.98"><defs><style>.cls-1{fill:#a2a1a0;fill-rule:evenodd;}</style></defs><g id="Cancel"><path class="cls-1" d="M298.07,411.79a9,9,0,1,0,9,9A9,9,0,0,0,298.07,411.79Zm0,16.85a7.87,7.87,0,1,1,7.87-7.86A7.86,7.86,0,0,1,298.07,428.64Z" transform="translate(-289.09 -411.79)"/><path class="cls-1" d="M301.86,423.74l-3-3,2.94-2.92a.57.57,0,0,0-.8-.8L298.1,420l-3-3a.55.55,0,0,0-.8,0,.57.57,0,0,0,0,.8l3,3-3,3a.54.54,0,0,0,0,.79.57.57,0,0,0,.8,0l3-3,3,3a.58.58,0,0,0,.81,0A.57.57,0,0,0,301.86,423.74Z" transform="translate(-289.09 -411.79)"/></g></svg>