<svg id="Слой_1" data-name="Слой 1" xmlns="http://www.w3.org/2000/svg" viewBox="0 0 10.97 10.97"><defs><style>.cls-1{fill:#fff;}</style></defs><path class="cls-1" d="M297.26,420.81l-.19-.17-4.27-4.27a.6.6,0,1,1,.83-.87l1.9,1.9,2.47,2.47.08.08.1-.1,4.32-4.32a.6.6,0,1,1,.92.78.94.94,0,0,0-.1.1L299,420.7l-.12.12.13.09,4.32,4.32a.6.6,0,0,1,.18.6.55.55,0,0,1-.45.44.6.6,0,0,1-.58-.19l-1.69-1.69-2.66-2.67-.11-.1a.76.76,0,0,1-.07.13l-4.33,4.32a.6.6,0,0,1-.75.14.61.61,0,0,1-.16-.92l.1-.1,4.29-4.28A.49.49,0,0,1,297.26,420.81Z" transform="translate(-292.59 -415.31)"/></svg>