<svg id="Слой_1" data-name="Слой 1" xmlns="http://www.w3.org/2000/svg" viewBox="0 0 15.04 15.04"><defs><style>.cls-1{fill:#e13333;fill-rule:evenodd;}</style></defs><g id="Cancel"><path class="cls-1" d="M298.07,413.26a7.52,7.52,0,1,0,7.52,7.52A7.52,7.52,0,0,0,298.07,413.26Zm0,14.1a6.58,6.58,0,1,1,6.58-6.58A6.59,6.59,0,0,1,298.07,427.36Z" transform="translate(-290.55 -413.26)"/><path class="cls-1" d="M301.24,423.25l-2.48-2.47,2.46-2.44a.46.46,0,0,0,0-.67.48.48,0,0,0-.67,0l-2.46,2.44-2.49-2.5a.48.48,0,0,0-.67,0,.48.48,0,0,0,0,.68l2.49,2.49-2.51,2.48a.47.47,0,1,0,.67.67l2.51-2.48,2.48,2.48a.48.48,0,0,0,.67,0A.5.5,0,0,0,301.24,423.25Z" transform="translate(-290.55 -413.26)"/></g></svg>