<svg id="Слой_1" data-name="Слой 1" xmlns="http://www.w3.org/2000/svg" viewBox="0 0 13.52 14.04"><defs><style>.cls-1{fill:#dd2525;}</style></defs><path class="cls-1" d="M304.84,415.81,303,418.27l-3.2,4.33a1.07,1.07,0,0,0-.2.59c-.11,1-.22,2-.34,3,0,.17-.05.34-.06.52a.39.39,0,0,1-.27.35l-1.44.62c-.29.13-.49,0-.53-.29-.09-.73-.16-1.45-.25-2.18s-.18-1.56-.28-2.35a.44.44,0,0,0-.11-.2l-5-6.74-.09-.13c.5.18,1,.39,1.52.54a13.08,13.08,0,0,0,2.84.48c1,.07,1.95.13,2.93.11a17.56,17.56,0,0,0,5-.67C304,416.15,304.41,416,304.84,415.81Z" transform="translate(-291.31 -413.72)"/><path class="cls-1" d="M298.06,415.92a20.29,20.29,0,0,1-4.19-.38,8.67,8.67,0,0,1-1-.3,1.17,1.17,0,0,1-.29-.17c-.22-.17-.23-.38,0-.51a2.73,2.73,0,0,1,.82-.36,16.91,16.91,0,0,1,2.13-.36c1.12-.08,2.24-.13,3.37-.12a14.57,14.57,0,0,1,3.83.48,3.43,3.43,0,0,1,.79.34c.27.15.27.4,0,.54a3.38,3.38,0,0,1-1,.4c-.9.16-1.8.28-2.7.38C299.24,415.92,298.65,415.9,298.06,415.92Z" transform="translate(-291.31 -413.72)"/></svg>