<svg id="Слой_1" data-name="Слой 1" xmlns="http://www.w3.org/2000/svg" viewBox="0 0 37.88 34.15"><defs><style>.cls-1{fill:#dd2525;}</style></defs><path class="cls-1" d="M309.1,418.76l3.88-3.5a.93.93,0,0,0,.31-.69V409c0-3.63-8.85-5.28-17.08-5.28s-17.07,1.65-17.07,5.28v5.59a1,1,0,0,0,.3.69L292.8,427.4v9.52a.92.92,0,0,0,.44.79.87.87,0,0,0,.49.14.86.86,0,0,0,.41-.1l5-2.48a.93.93,0,0,0,.52-.83v-.54a9.62,9.62,0,1,0,9.47-15.14Zm-12.89-13.2c9.84,0,15.22,2.26,15.22,3.42s-5.38,3.41-15.22,3.41S281,410.14,281,409,286.37,405.56,296.21,405.56Zm1.55,23.78v4.52l-3.1,1.55V427a.9.9,0,0,0-.31-.69L281,414.15v-2.61c3,1.85,9.27,2.72,15.21,2.72s12.19-.87,15.22-2.72v2.61l-4.91,4.44,0,.06a9.64,9.64,0,0,0-8.72,9.58,8.69,8.69,0,0,0,.05.89A.87.87,0,0,0,297.76,429.34Zm9.63,6.65a7.76,7.76,0,1,1,7.76-7.76A7.77,7.77,0,0,1,307.39,436Z" transform="translate(-279.14 -403.7)"/><path class="cls-1" d="M311.11,427.3h-2.79v-2.8a.93.93,0,0,0-1.86,0v2.8h-2.8a.93.93,0,0,0,0,1.86h2.8V432a.93.93,0,0,0,1.86,0v-2.79h2.79a.93.93,0,1,0,0-1.86Z" transform="translate(-279.14 -403.7)"/></svg>