<svg id="Слой_1" data-name="Слой 1" xmlns="http://www.w3.org/2000/svg" viewBox="0 0 53.69 40.6"><defs><style>.cls-1{fill:#de2d2d;}</style></defs><path class="cls-1" d="M324.84,432.47V403.14a3,3,0,0,0-1.32-2.52.92.92,0,0,0-.51-.15h-30.1a2.37,2.37,0,0,0-2.4,2,.61.61,0,0,0,0,.14v5H274a1,1,0,1,0,0,2H290.5v10.06a1,1,0,1,0,2,0V402.73a.37.37,0,0,1,.41-.26h9.19v8.87a1.81,1.81,0,0,0,.39,1.32,2.55,2.55,0,0,0,2.06.79h6.82a1,1,0,0,0,.45-.11,2.76,2.76,0,0,0,1.63-2.18v-8.69h9.18a1.1,1.1,0,0,1,.21.67v29.33H292.5V427H299a1,1,0,0,0,0-2H291.9a1.1,1.1,0,0,0-.4-.08H281.19a1,1,0,0,0,0,2h9.31v5.48a2.05,2.05,0,0,0,.73,1.74,1.74,1.74,0,0,0,1.08.36l.27,0h29.93c.42,0,1.7,0,2.21-.9A1.43,1.43,0,0,0,324.84,432.47Zm-13.38-21.36a1.19,1.19,0,0,1-.36.34h-6.55a1.71,1.71,0,0,1-.45-.05v-8.93h7.35Z" transform="translate(-271.21 -400.47)"/><path class="cls-1" d="M277.37,426a1,1,0,0,0-1-1h-4.16a1,1,0,0,0,0,2h4.16A1,1,0,0,0,277.37,426Z" transform="translate(-271.21 -400.47)"/><path class="cls-1" d="M286.76,415.61a1,1,0,0,0,0-2H278.9a1,1,0,0,0,0,2Z" transform="translate(-271.21 -400.47)"/><path class="cls-1" d="M302.33,439.08h-26a1,1,0,0,0,0,2h26a1,1,0,0,0,0-2Z" transform="translate(-271.21 -400.47)"/><path class="cls-1" d="M319.57,439.08h-9.86a1,1,0,0,0,0,2h9.86a1,1,0,0,0,0-2Z" transform="translate(-271.21 -400.47)"/></svg>