<svg id="Слой_1" data-name="Слой 1" xmlns="http://www.w3.org/2000/svg" viewBox="0 0 49.55 40.74"><defs><style>.cls-1{fill:#de2d2d;}</style></defs><path class="cls-1" d="M293.14,433.44H274.3a1,1,0,0,0,0,2h18.84a1,1,0,0,0,0-2Z" transform="translate(-273.3 -400.41)"/><path class="cls-1" d="M322.1,411.91a1,1,0,0,0-.86.18,21.4,21.4,0,0,1-4.92.79,7,7,0,0,1-.78,0V401.41a1,1,0,0,0-1-1H285.88a1.15,1.15,0,0,0-.41.08l-8.92,4a1,1,0,0,0-.59.92v23.72a1,1,0,0,0,1,1h17.21a24.72,24.72,0,0,0,3.9,5c3.62,3.86,9.66,5.89,9.92,6a1.06,1.06,0,0,0,.31,0,.78.78,0,0,0,.26,0c.16,0,1.72-.49,6.45-3.08,5.05-2.75,7.67-9.88,7.78-10.18a1,1,0,0,0,.06-.34V412.88A1,1,0,0,0,322.1,411.91Zm-24.19-9.5h4.71v4.48h-4.71ZM278,406l7-3.14v25.22h-7Zm16.32,5.68a1,1,0,0,0-.53.88l.05,15.52H287V402.41h8.92v5.48a1,1,0,0,0,1,1h6.71a1,1,0,0,0,1-1v-5.48h8.92v10.21a8.61,8.61,0,0,1-4.32-3.12,1,1,0,0,0-.78-.45,1,1,0,0,0-.82.36A14.81,14.81,0,0,1,302.3,413c-3.17,1.28-7-1.21-7-1.23A1,1,0,0,0,294.28,411.72Zm26.57,15.61c-.4,1-2.8,6.76-6.79,8.95a48.32,48.32,0,0,1-5.75,2.81c-1.24-.46-5.95-2.32-8.79-5.34a20.89,20.89,0,0,1-3.72-4.83l-.05-14.64c1.72.78,4.58,1.67,7.3.58a17.5,17.5,0,0,0,5.26-3.31,9.84,9.84,0,0,0,8.21,3.32,38.13,38.13,0,0,0,4.33-.6Z" transform="translate(-273.3 -400.41)"/><path class="cls-1" d="M315.46,418.57l-8.67,8.06-2.32-1.89a1,1,0,1,0-1.26,1.55l3,2.44a1,1,0,0,0,.63.22,1,1,0,0,0,.68-.26l9.31-8.65a1,1,0,0,0-1.36-1.47Z" transform="translate(-273.3 -400.41)"/><path class="cls-1" d="M316.75,422.94c-.52.41-1,.83-1.53,1.25a6.82,6.82,0,0,1,.2,1.57,7,7,0,1,1-6.95-6.95,6.84,6.84,0,0,1,3.09.74l.88-.8.7-.61a9.11,9.11,0,1,0,3.76,4.69Z" transform="translate(-273.3 -400.41)"/></svg>