<svg id="Слой_1" data-name="Слой 1" xmlns="http://www.w3.org/2000/svg" viewBox="0 0 53.43 41.13"><defs><style>.cls-1{fill:#de2d2d;}</style></defs><path class="cls-1" d="M324.76,401a1,1,0,0,0-1.2-.74l-51.43,12.19a1,1,0,0,0-.74,1.2,1,1,0,0,0,1,.77.93.93,0,0,0,.23,0L324,402.23A1,1,0,0,0,324.76,401Z" transform="translate(-271.36 -400.26)"/><path class="cls-1" d="M317.8,406.38l-39,9.09a1,1,0,0,0-.77,1v23.94a1,1,0,0,0,1,1h4.88a1,1,0,0,0,1-1V421.12l26.71-6.4v12.64h-3.66v-4.65a1,1,0,0,0-1-1H295a1,1,0,0,0-1,1v4.65h-4.77a1,1,0,0,0-1,1v12a1,1,0,0,0,1,1H318a1,1,0,0,0,1-1v-33a1,1,0,0,0-.38-.79A1.07,1.07,0,0,0,317.8,406.38Zm-17.87,27H296v-4h3.9Zm2-4h4v4h-4Zm-2,6v4H296v-4Zm2,0h4v4h-4Zm6,0h3.66v4h-3.66Zm3.66-6v4h-3.66v-4Zm-5.66-2h-4v-3.65h4ZM296,423.71h3.9v3.65H296Zm-2,5.65v4h-3.77v-4Zm-3.77,6H294v4h-3.77Zm26.77,4H313.6V413.45a1,1,0,0,0-.39-.78,1,1,0,0,0-.85-.19l-28.71,6.87a1,1,0,0,0-.76,1v19.06H280V417.24l37-8.62Z" transform="translate(-271.36 -400.26)"/></svg>