<svg id="Слой_1" data-name="Слой 1" xmlns="http://www.w3.org/2000/svg" viewBox="0 0 19.26 19.26"><defs><style>.cls-1{fill:#de2726;}</style></defs><path class="cls-1" d="M307.64,424.75a5.35,5.35,0,0,1-5.59,5.59c-1.59.09-6.36.09-7.95,0a5.73,5.73,0,0,1-4-1.56,5.67,5.67,0,0,1-1.56-4c-.09-1.59-.09-6.36,0-7.95a5.33,5.33,0,0,1,5.59-5.58c1.59-.09,6.36-.09,7.95,0a5.33,5.33,0,0,1,5.59,5.59C307.73,418.4,307.73,423.16,307.64,424.75Zm-1.67-4c0-1.4.12-4.41-.39-5.68a3.23,3.23,0,0,0-1.83-1.83c-1.26-.5-4.27-.39-5.67-.39s-4.41-.11-5.68.39a3.26,3.26,0,0,0-1.83,1.83c-.5,1.26-.39,4.28-.39,5.68s-.11,4.4.39,5.67a3.23,3.23,0,0,0,1.83,1.83c1.26.5,4.28.39,5.68.39s4.41.12,5.67-.39a3.23,3.23,0,0,0,1.83-1.83C306.09,425.19,306,422.18,306,420.78Zm-3,0a4.94,4.94,0,1,1-4.93-4.94A4.92,4.92,0,0,1,303,420.78Zm-1.72,0a3.21,3.21,0,1,0-3.21,3.21A3.21,3.21,0,0,0,301.29,420.78Zm1.93-4a1.15,1.15,0,1,1,1.15-1.15A1.16,1.16,0,0,1,303.22,416.79Z" transform="translate(-288.44 -411.15)"/></svg>