<svg id="Слой_1" data-name="Слой 1" xmlns="http://www.w3.org/2000/svg" viewBox="0 0 15.89 15.88"><defs><style>.cls-1{fill:#dd2525;}</style></defs><path class="cls-1" d="M301.17,423.87a4.26,4.26,0,0,1-2.26,1.17,4,4,0,1,1,3.34-3.92c0,.41,0,.82,0,1.23a1.2,1.2,0,0,0,1.13,1.16,1.16,1.16,0,0,0,1.22-1,7.38,7.38,0,0,0-1.06-4.89,6.35,6.35,0,0,0-11.6,4.07,6.42,6.42,0,0,0,6,5.81h.29v1.58a7.77,7.77,0,0,1-3.87-1,7.93,7.93,0,0,1-3.93-8.19A7.93,7.93,0,0,1,306.21,421a11.62,11.62,0,0,1,0,1.67,2.65,2.65,0,0,1-1.92,2.34,2.69,2.69,0,0,1-2.89-.78,1.58,1.58,0,0,1-.12-.15S301.21,423.93,301.17,423.87Zm-.51-2.75a2.38,2.38,0,1,0-2.34,2.39A2.38,2.38,0,0,0,300.66,421.12Z" transform="translate(-290.34 -413.19)"/></svg>