<svg id="Слой_1" data-name="Слой 1" xmlns="http://www.w3.org/2000/svg" viewBox="0 0 15.81 10.85"><defs><style>.cls-1{fill:#e23f3f;}</style></defs><path class="cls-1" d="M303.19,419.81h-13v1.81h13l-2.44,3.06a.9.9,0,1,0,1.41,1.13l3.62-4.53s0,0,0-.07a.33.33,0,0,0,.06-.1.36.36,0,0,0,0-.09l0-.13a.5.5,0,0,0,0-.12s0,0,0,0,0,0,0-.05a.5.5,0,0,0,0-.12l0-.13a.36.36,0,0,0,0-.09.33.33,0,0,0-.06-.1s0-.05,0-.08l-3.62-4.52a.91.91,0,0,0-.7-.34.94.94,0,0,0-.57.2.9.9,0,0,0-.14,1.27Z" transform="translate(-290.17 -415.29)"/></svg>