<svg id="Слой_1" data-name="Слой 1" xmlns="http://www.w3.org/2000/svg" viewBox="0 0 20.04 19.98"><defs><style>.cls-1{fill:#dd2525;}</style></defs><path class="cls-1" d="M292.77,410.78H303.4v9.4h4.67c0,.11,0,.2,0,.29v10c0,.22,0,.3-.29.3H288.05V420.24h4.72Zm-3.62,10.52v8.36h8.34v-8.3h-1.8v2.39h-4.8V421.3Zm9.47,8.36H307v-8.3h-1.82v2.39h-4.8V421.3h-1.75Zm1.82-15.4h-4.81v-2.39h-1.69v8.35h8.24v-8.35h-1.74ZM292,421.33v1.32h2.59v-1.32Zm9.46,0v1.29h2.59v-1.29Zm-4.74-8.19h2.59v-1.3h-2.59Z" transform="translate(-288.05 -410.78)"/></svg>