<svg id="Слой_1" data-name="Слой 1" xmlns="http://www.w3.org/2000/svg" viewBox="0 0 12.97 18.74"><defs><style>.cls-1{fill:#fff;}</style></defs><path class="cls-1" d="M303.87,414.1c-.62,0-1.25,0-1.88,0h-.25c0-.09,0-.14,0-.19,0-.61-.19-.79-.8-.79h-.84v-1c0-.51-.21-.72-.73-.72-.84,0-1.69,0-2.53,0-.55,0-.75.2-.75.75v.92l-.08,0h-.93a.6.6,0,0,0-.63.65c0,.09,0,.19,0,.33h-.3c-.61,0-1.22,0-1.83,0s-.71.21-.71.71v14.64a.6.6,0,0,0,.69.69h11.57c.5,0,.71-.22.71-.72V414.78A.6.6,0,0,0,303.87,414.1Zm-8.23.23h.88c.54,0,.76-.22.77-.76v-.93h1.57v1a.64.64,0,0,0,.72.71h.92v1.25h-4.86Zm7.69,14.58H292.81V415.33h1.61c0,.27,0,.54,0,.8a.62.62,0,0,0,.67.69h5.95a.62.62,0,0,0,.67-.69c0-.26,0-.53,0-.81h1.61Z" transform="translate(-291.59 -411.41)"/><path class="cls-1" d="M300.49,419.17h-4.95a.61.61,0,0,0-.67.59.62.62,0,0,0,.67.62h4.95a.61.61,0,0,0,.67-.61A.6.6,0,0,0,300.49,419.17Z" transform="translate(-291.59 -411.41)"/><path class="cls-1" d="M299.47,425.07h-3.93a.61.61,0,1,0,0,1.21h3.92a.61.61,0,1,0,0-1.21Z" transform="translate(-291.59 -411.41)"/><path class="cls-1" d="M295.55,423.33H298a.59.59,0,0,0,.63-.62.61.61,0,0,0-.66-.6h-2.41a.63.63,0,0,0-.68.61A.62.62,0,0,0,295.55,423.33Z" transform="translate(-291.59 -411.41)"/></svg>