<svg id="Слой_1" data-name="Слой 1" xmlns="http://www.w3.org/2000/svg" viewBox="0 0 60.91 53.01"><defs><style>.cls-1{fill:#dd2525;}</style></defs><path class="cls-1" d="M267.62,394.27v53h60.91v-53ZM326,444.75H270.18v-37H326Zm0-39.63H270.16v-8.31H326Z" transform="translate(-267.62 -394.27)"/><path class="cls-1" d="M298.1,438.43a12.83,12.83,0,1,0-12.85-12.83A12.8,12.8,0,0,0,298.1,438.43ZM298,415.32a10.29,10.29,0,1,1-10.26,10.31A10.29,10.29,0,0,1,298,415.32Z" transform="translate(-267.62 -394.27)"/><path class="cls-1" d="M275.42,399.72h-2.6v2.47h2.6Z" transform="translate(-267.62 -394.27)"/><path class="cls-1" d="M281.14,399.72h-2.61v2.48h2.61Z" transform="translate(-267.62 -394.27)"/><path class="cls-1" d="M286.85,399.72h-2.58v2.46h2.58Z" transform="translate(-267.62 -394.27)"/><path class="cls-1" d="M297.58,428.05c.29.64.65.61,1,0a3.73,3.73,0,0,0,.35-.79,28.07,28.07,0,0,0,1.27-6.85,2.24,2.24,0,0,0-.2-1,2.12,2.12,0,0,0-2.46-1.2,2.41,2.41,0,0,0-1.71,2.43c.33,1.78.63,3.57,1,5.34A9.62,9.62,0,0,0,297.58,428.05Z" transform="translate(-267.62 -394.27)"/><path class="cls-1" d="M298.07,430.45a1.38,1.38,0,1,0,1.38,1.37A1.36,1.36,0,0,0,298.07,430.45Z" transform="translate(-267.62 -394.27)"/></svg>