<svg id="Слой_1" data-name="Слой 1" xmlns="http://www.w3.org/2000/svg" viewBox="0 0 64.97 69.79"><defs><style>.cls-1{fill:#dd2525;}</style></defs><path class="cls-1" d="M330.54,420a2.41,2.41,0,0,0-.36-1.22c-1.39-2.15-2.84-4.27-4.24-6.41a1.67,1.67,0,0,0-1.56-.84c-3.09,0-6.19,0-9.28,0h-.74c0-.16,0-.21,0-.26v-7.63a5.82,5.82,0,0,0-6-6.06c-1.69,0-3.38,0-5.07,0a1.81,1.81,0,0,1-.88-.23,6.12,6.12,0,0,0-3.3-.92c-.69,0-1.39,0-2.14,0,0-1.63,0-3.17,0-4.72a5.65,5.65,0,0,0-4.74-5.6A15.4,15.4,0,0,0,288,386a5.7,5.7,0,0,0-5,5.83c0,1.5,0,3,0,4.54h-2.24a6,6,0,0,0-3.1.86,2.26,2.26,0,0,1-1,.29c-1.74,0-3.48,0-5.22,0a5.77,5.77,0,0,0-5.83,5.87q0,23.18,0,46.35a5.77,5.77,0,0,0,5.88,5.9h37a5.78,5.78,0,0,0,5.85-5.85c0-1.11,0-2.22,0-3.45H328a2.33,2.33,0,0,0,2.55-2.52C330.56,435.9,330.57,427.93,330.54,420Zm-7.08-6.14a1.06,1.06,0,0,1,1.05.54c.85,1.35,1.75,2.66,2.71,4.1H299.1l1.63-2.46c.49-.72.85-1.69,1.53-2.07s1.64-.1,2.49-.1Zm-8,7v8.19l-1.16-.77c-1-.68-1.19-.68-2.2,0l-1.2.8v-8.21Zm-7,0v3.4H298.11v-3.4ZM309,400a3.19,3.19,0,0,1,2.92,3c.1,2.84,0,5.69,0,8.57h-2.29v-6.35c0-2.11-.81-2.91-2.94-2.92h-1.62c-.17-.8-.32-1.52-.48-2.29C306.1,399.92,307.57,399.83,309,400ZM281,398.73h2.83c1.14,0,1.53-.38,1.53-1.51,0-1.74,0-3.49,0-5.23a3.5,3.5,0,0,1,3.73-3.72h2a3.48,3.48,0,0,1,3.59,3.63c0,1.8,0,3.59,0,5.38,0,1.05.4,1.45,1.44,1.45h2.9a3.51,3.51,0,0,1,3.78,3.81v.81H277.29A3.6,3.6,0,0,1,281,398.73Zm21.73,7v1.08H277.22v-1.08Zm.86,3.44c1.09,0,1.49-.4,1.49-1.49s0-2,0-3.1h2.27v6.91c-1.72,0-3.43.05-5.14,0a2,2,0,0,0-1.95,1.06c-1.3,2-2.69,4-4,6.06a3,3,0,0,0-.46,1.47q0,11.84,0,23.68a2.35,2.35,0,0,0,2.59,2.62h8.77a1.12,1.12,0,0,1,.21.05v2.23h-25.5V448c0-1.67,0-3.34,0-5a3.46,3.46,0,0,0-3.58-3.57c-1.81,0-3.62,0-5.44,0l-.2,0V404.59h2.26v3.1c0,1.1.4,1.5,1.48,1.5Zm-29,32.56c1.24,0,2.61,0,4,0a1,1,0,0,1,1,1.05c0,1.34,0,2.69,0,3.95Zm3.12,6.93h-5v-5Zm34.31,1.67a3.42,3.42,0,0,1-3.65,3H271.68a3.51,3.51,0,0,1-3.77-3.76V403.7a3.5,3.5,0,0,1,3.78-3.81h3.58c-.16.76-.31,1.48-.49,2.32h-2a2.34,2.34,0,0,0-2.56,2.58v43.66a2.35,2.35,0,0,0,2.62,2.59H307a2.37,2.37,0,0,0,2.68-2.68v-1.94H312C312,447.75,312.07,449.06,311.94,450.35ZM328.2,444H298.11V426.66h10.41V430c0,.41,0,.82,0,1.23a1.14,1.14,0,0,0,1.83,1c.81-.49,1.59-1,2.36-1.57a.65.65,0,0,1,.89,0,19.27,19.27,0,0,0,2.24,1.48,1.67,1.67,0,0,0,1.32.12,1.59,1.59,0,0,0,.61-1.17c.07-1.45,0-2.9,0-4.39h10.4Zm0-19.76H317.84v-3.4h10.37Z" transform="translate(-265.59 -385.91)"/><path class="cls-1" d="M274.88,423.22a2.25,2.25,0,0,0,2.16,2.23c2.41,0,4.83,0,7.24,0a2.23,2.23,0,0,0,2.16-2c.07-.86,0-1.72,0-2.6h-2.33v2.24h-6.88v-7h6.88v-2.28c-2.44,0-4.85-.05-7.26,0a2.18,2.18,0,0,0-2,2.23C274.86,418.48,274.85,420.85,274.88,423.22Z" transform="translate(-265.59 -385.91)"/><path class="cls-1" d="M274.93,434.73h16.15v-2.24H274.93Z" transform="translate(-265.59 -385.91)"/><path class="cls-1" d="M279.55,427.82v2.25h11.51v-2.25Z" transform="translate(-265.59 -385.91)"/><path class="cls-1" d="M280.44,417.59l-1.71,1.77c.79.78,1.54,1.57,2.33,2.3a1,1,0,0,0,1.51,0c1.57-1.54,3.11-3.11,4.67-4.69-.54-.53-1.06-1.06-1.65-1.66l-3.8,3.9Z" transform="translate(-265.59 -385.91)"/><path class="cls-1" d="M293.38,415h-4.55v2.24h4.55Z" transform="translate(-265.59 -385.91)"/><path class="cls-1" d="M293.39,418.54h-4.56v2.24h4.56Z" transform="translate(-265.59 -385.91)"/><path class="cls-1" d="M277.16,427.83h-2.24v2.25h2.24Z" transform="translate(-265.59 -385.91)"/><path class="cls-1" d="M290,397.56a3.49,3.49,0,1,0-3.49-3.5A3.49,3.49,0,0,0,290,397.56Zm-.05-4.64a1.16,1.16,0,1,1-1.12,1.19A1.17,1.17,0,0,1,289.92,392.92Z" transform="translate(-265.59 -385.91)"/></svg>