<svg id="Слой_1" data-name="Слой 1" xmlns="http://www.w3.org/2000/svg" viewBox="0 0 52.53 43.97"><defs><style>.cls-1{fill:#dd2525;}</style></defs><path class="cls-1" d="M324.3,402.07a1.86,1.86,0,0,0-1.83-1.54,1.89,1.89,0,0,0-1.83,1.57q-2.4,8.7-4.79,17.41c-.47,1.72-1.19,2.28-3,2.28H290a2.46,2.46,0,0,1-2.76-2.08c-.34-1.21-.67-2.45-1-3.64l-.51-1.85-.94-3.43c-.83-3-1.68-6.13-2.53-9.2a4,4,0,0,0-4.06-3.07h-4.51a1.8,1.8,0,1,0,0,3.59h.95c1,0,2,0,3,0h.11a1.12,1.12,0,0,1,1.21,1c1.37,5,2.77,10.14,4.13,15.09q1.47,5.34,2.93,10.68a6.81,6.81,0,0,0,1.87,3.41l.21.2-.17.24a6.06,6.06,0,0,0,7.23,9.27,6.08,6.08,0,0,0,3.27-7.54l-.13-.43h7.89l-.08.4c0,.05,0,.09,0,.13s0,.2-.06.3a6,6,0,1,0,11.82,2.27,6,6,0,0,0-4.84-6.57,19.12,19.12,0,0,0-2.94-.14h-17.7a2.36,2.36,0,0,1-2.42-1.27,15.86,15.86,0,0,1-.72-2.21c-.09-.33-.19-.67-.29-1l-.13-.43h24.42a6,6,0,0,0,6-4.48c1.8-6.36,3.55-12.62,5-17.9A2.56,2.56,0,0,0,324.3,402.07ZM311.81,434h0a2.43,2.43,0,0,1,1.72,4.17,2.45,2.45,0,0,1-1.72.74h0a2.53,2.53,0,0,1-2.45-2.45A2.49,2.49,0,0,1,311.81,434Zm-20.81.72a2.43,2.43,0,0,1,1.71-.72,2.52,2.52,0,0,1,2.44,2.47,2.43,2.43,0,0,1-.74,1.71,2.48,2.48,0,0,1-1.71.73h0a2.52,2.52,0,0,1-2.44-2.47A2.42,2.42,0,0,1,291,434.69Z" transform="translate(-271.79 -398.51)"/><path class="cls-1" d="M307,410.59h.27a3.27,3.27,0,0,0,.78-.05,1.79,1.79,0,0,0-.39-3.54h-4.42l-.09-.2,0-.08a.48.48,0,0,1-.07-.23v-1.83c0-.7,0-1.39,0-2.08a1.8,1.8,0,1,0-3.58,0V407H295a2.52,2.52,0,0,0-.63.05,1.79,1.79,0,0,0,.44,3.52h4.63v1.62c0,.95,0,1.87,0,2.8a1.8,1.8,0,1,0,3.58,0V410.6h4Z" transform="translate(-271.79 -398.51)"/></svg>