<svg id="Слой_1" data-name="Слой 1" xmlns="http://www.w3.org/2000/svg" viewBox="0 0 16.19 16.2"><defs><style>.cls-1{fill:#de2d2d;}</style></defs><path class="cls-1" d="M290.24,422.87a4.09,4.09,0,0,0,.64.9c1.39,1.42,2.8,2.82,4.21,4.22a3.94,3.94,0,0,0,.73.54,1.7,1.7,0,0,0,1.94,0,8.77,8.77,0,0,0,1.25-1c2-2,3.95-3.93,5.92-5.9a4.2,4.2,0,0,0,1.28-3.11c0-.47,0-1,0-1.43h0c0-.7,0-1.4,0-2.1a3.7,3.7,0,0,0-.13-.81,1.76,1.76,0,0,0-1.55-1.37,11.56,11.56,0,0,0-1.55-.12c-.88,0-1.76,0-2.63,0a4.14,4.14,0,0,0-2.95,1.19c-1.48,1.45-2.94,2.92-4.4,4.39-.7.71-1.4,1.42-2.09,2.15a4.75,4.75,0,0,0-.63.89A1.59,1.59,0,0,0,290.24,422.87Zm1.34-1.43c.48-.55,1-1.08,1.51-1.6l5.09-5.1a2.75,2.75,0,0,1,1.8-.83c.66,0,3.39,0,4.09,0s.72.2.81.74a2.73,2.73,0,0,1,.05.5c0,1.05,0,2.09,0,3.14a3.26,3.26,0,0,1-1,2.49c-1.74,1.72-3.46,3.46-5.2,5.18-.48.48-1,.94-1.51,1.37a.61.61,0,0,1-.91,0c-.34-.27-.68-.56-1-.86-1-1-1.92-1.92-2.87-2.89a11.13,11.13,0,0,1-.87-.95C291.17,422.16,291.16,421.94,291.58,421.44Z" transform="translate(-290.02 -412.63)"/><path class="cls-1" d="M301.88,415.72a1.23,1.23,0,0,1,1.23,1.23,1.23,1.23,0,1,1-2.46,0A1.23,1.23,0,0,1,301.88,415.72Z" transform="translate(-290.02 -412.63)"/></svg>