<svg id="Слой_1" data-name="Слой 1" xmlns="http://www.w3.org/2000/svg" viewBox="0 0 15.94 15.94"><defs><style>.cls-1{fill:#fff;}</style></defs><path class="cls-1" d="M290.36,422.84a4.27,4.27,0,0,0,.63.88c1.37,1.4,2.76,2.78,4.15,4.16a4.68,4.68,0,0,0,.71.53,1.67,1.67,0,0,0,1.91,0,8.59,8.59,0,0,0,1.23-1c2-1.93,3.9-3.87,5.84-5.81a4.21,4.21,0,0,0,1.25-3.06c0-.47,0-2.79-.05-3.48a3.11,3.11,0,0,0-.13-.8,1.74,1.74,0,0,0-1.52-1.35,13,13,0,0,0-1.53-.11c-.86,0-1.72,0-2.59,0a4.08,4.08,0,0,0-2.9,1.17c-1.45,1.43-2.89,2.88-4.33,4.32-.69.7-1.38,1.4-2,2.11a4.38,4.38,0,0,0-.62.88A1.58,1.58,0,0,0,290.36,422.84Zm1.33-1.41c.47-.54,1-1.06,1.48-1.57q2.49-2.52,5-5A2.68,2.68,0,0,1,300,414c.65,0,1.95,0,2-.06.68,0,1.37.06,2.06.11s.71.19.81.72a4,4,0,0,1,0,.49c0,1,0,2.07,0,3.1a3.2,3.2,0,0,1-1,2.45c-1.71,1.69-3.41,3.4-5.12,5.1-.47.47-1,.92-1.49,1.35a.58.58,0,0,1-.89,0,9.74,9.74,0,0,1-1-.84c-1-.94-1.9-1.89-2.84-2.84-.29-.3-.58-.61-.85-.94C291.28,422.14,291.26,421.92,291.69,421.43Z" transform="translate(-290.14 -412.76)"/><path class="cls-1" d="M301.82,415.8a1.22,1.22,0,1,1-1.21,1.22A1.21,1.21,0,0,1,301.82,415.8Z" transform="translate(-290.14 -412.76)"/></svg>