<svg id="Слой_1" data-name="Слой 1" xmlns="http://www.w3.org/2000/svg" viewBox="0 0 12.73 10.79"><path d="M294.2,420.72l1.45-1.14a.47.47,0,0,1,.59-.07.45.45,0,0,1,0,.77c-.51.42-1,.83-1.56,1.24-.22.18-.45.37-.68.54a.44.44,0,0,1-.68-.09c-.65-.86-1.28-1.73-1.92-2.6a.46.46,0,0,1,.08-.67.45.45,0,0,1,.66.12l.91,1.23a1.81,1.81,0,0,0,.2.25,5.42,5.42,0,0,1,1-2.65,5.2,5.2,0,0,1,5-2.21,5.09,5.09,0,0,1,4.4,3.44,5.35,5.35,0,0,1-4.38,7.26,5.19,5.19,0,0,1-4.39-1.47.46.46,0,1,1,.64-.66,4.48,4.48,0,1,0-1.36-3.38S294.18,420.66,294.2,420.72Z" transform="translate(-291.29 -415.4)"/></svg>