<svg id="Слой_1" data-name="Слой 1" xmlns="http://www.w3.org/2000/svg" viewBox="0 0 58.08 45.42"><defs><style>.cls-1{fill:#fff;}</style></defs><path class="cls-1" d="M322.12,420.92a1.47,1.47,0,0,1-.56-1.2q0-7.61,0-15.22a6.62,6.62,0,0,0-6.72-6.74H275.27a6.61,6.61,0,0,0-6.68,6.7q0,12.78,0,25.55a6.61,6.61,0,0,0,6.84,6.86h26.89a1.11,1.11,0,0,1,1.1.51c3,4.38,7.17,6.42,12.45,5.63a11.87,11.87,0,0,0,10.24-9C327.56,428.87,326.1,424.46,322.12,420.92ZM275,400.37h40.24l.2.17a1.27,1.27,0,0,0-.44.15q-9.72,7.31-19.43,14.65a.67.67,0,0,1-1,0q-9.72-7.32-19.45-14.61a2.26,2.26,0,0,0-.26-.16Zm26.78,34h-26c-3,0-4.66-1.7-4.66-4.71V404.8a4.29,4.29,0,0,1,1.07-3.09l4.86,3.63L293.85,418c1.1.83,1.36.83,2.49,0l21.16-15.9c.14-.11.3-.21.48-.34a3.51,3.51,0,0,1,1,2.55c0,4.81,0,9.62,0,14.43a1,1,0,0,1-.07.22c-4.9-1.83-9.47-1.26-13.41,2.27S300.73,429.25,301.79,434.35Zm12.28,6.31a10.1,10.1,0,1,1,10-10.08A10.18,10.18,0,0,1,314.07,440.66Z" transform="translate(-268.59 -397.75)"/><path class="cls-1" d="M317.7,431l-2.43,2.43v-1q0-3.79,0-7.57a1.23,1.23,0,0,0-1.41-1.38,1.21,1.21,0,0,0-1.1,1.38q0,4.17,0,8.33l-.21.13c-.87-.91-1.72-1.83-2.62-2.71a1.2,1.2,0,0,0-1.87,0,1.28,1.28,0,0,0,.14,1.89c1.55,1.57,3.12,3.13,4.68,4.69a1.39,1.39,0,0,0,2.3,0l4.34-4.35c.93-.92,1.06-1.67.41-2.29S318.65,430,317.7,431Z" transform="translate(-268.59 -397.75)"/></svg>