<svg id="Слой_1" data-name="Слой 1" xmlns="http://www.w3.org/2000/svg" viewBox="0 0 32.76 32.76"><defs><style>.cls-1{fill:#e4191a;}.cls-2{fill:#fff;}</style></defs><circle class="cls-1" cx="16.38" cy="16.38" r="16.38"/><path class="cls-2" d="M289.86,424a3.11,3.11,0,0,1-2.38-1l.9-.91a2,2,0,0,0,1.57.71,1.17,1.17,0,0,0,.75-.2.69.69,0,0,0,.24-.55.6.6,0,0,0-.14-.43.87.87,0,0,0-.59-.24l-.62-.08a2.41,2.41,0,0,1-1.46-.6,1.81,1.81,0,0,1-.46-1.27,2.05,2.05,0,0,1,.16-.78,1.82,1.82,0,0,1,.46-.6,2,2,0,0,1,.74-.39,2.88,2.88,0,0,1,1-.14,3.11,3.11,0,0,1,1.25.22,2.37,2.37,0,0,1,.93.66l-.91.92a1.58,1.58,0,0,0-.54-.42,1.74,1.74,0,0,0-.81-.17,1.18,1.18,0,0,0-.68.16.56.56,0,0,0-.23.45.61.61,0,0,0,.18.46,1.46,1.46,0,0,0,.57.21l.62.09a2.64,2.64,0,0,1,1.44.6,1.66,1.66,0,0,1,.47,1.27,1.86,1.86,0,0,1-.16.83,1.7,1.7,0,0,1-.48.65,2.18,2.18,0,0,1-.76.42A3.76,3.76,0,0,1,289.86,424Z" transform="translate(-281.69 -404.4)"/><path class="cls-2" d="M297.31,423.92l-.45-1.5h-2.09l-.45,1.5h-1.39l2.07-6.28h1.69l2.05,6.28Zm-1.48-5h0l-.69,2.38h1.44Z" transform="translate(-281.69 -404.4)"/><path class="cls-2" d="M299.61,423.92v-6.28H301v5.06h2.39v1.22Z" transform="translate(-281.69 -404.4)"/><path class="cls-2" d="M304.38,423.92v-6.28h4.27v1.21h-2.9v1.28h2.49v1.21h-2.49v1.36h2.9v1.22Z" transform="translate(-281.69 -404.4)"/></svg>