<svg id="Слой_1" data-name="Слой 1" xmlns="http://www.w3.org/2000/svg" viewBox="0 0 34.57 36.1"><defs><style>.cls-1{fill:#fab31e;}.cls-2{fill:#fff;}</style></defs><path class="cls-1" d="M315.33,416a5.63,5.63,0,0,1-.34.89c-.28.53-.62,1-.92,1.55a4.38,4.38,0,0,0,0,4.55c.3.54.63,1.08.95,1.61a2,2,0,0,1-.55,2.77,1.91,1.91,0,0,1-.45.23c-.53.23-1.08.42-1.6.65a4.31,4.31,0,0,0-2.78,3.9c0,.56-.08,1.13-.13,1.69a2,2,0,0,1-2.57,1.83c-.6-.14-1.19-.32-1.79-.45a4.3,4.3,0,0,0-4.34,1.41c-.41.46-.78.95-1.18,1.42a2,2,0,0,1-2.81.3,2.13,2.13,0,0,1-.3-.3c-.41-.45-.78-.95-1.18-1.41a4.32,4.32,0,0,0-4.44-1.44c-.53.12-1.07.27-1.6.4a2.09,2.09,0,0,1-2.67-2,16.67,16.67,0,0,0-.15-2,4.27,4.27,0,0,0-2.63-3.34c-.55-.25-1.14-.45-1.7-.68a2,2,0,0,1-1.23-2.55,2.38,2.38,0,0,1,.23-.45c.29-.48.59-1,.87-1.45a4.39,4.39,0,0,0,0-4.77l-.89-1.48a2,2,0,0,1,.55-2.77,1.91,1.91,0,0,1,.45-.23c.54-.23,1.1-.42,1.63-.66a4.32,4.32,0,0,0,2.72-3.83,16.59,16.59,0,0,1,.13-1.72,2,2,0,0,1,2.06-1.94,2.13,2.13,0,0,1,.56.1c.68.17,1.36.38,2,.49a4.3,4.3,0,0,0,4.09-1.54c.37-.42.72-.87,1.08-1.3a2.06,2.06,0,0,1,2.89-.35,1.93,1.93,0,0,1,.35.35c.36.43.7.88,1.08,1.31a4.31,4.31,0,0,0,4.46,1.45l1.71-.41a2,2,0,0,1,2.48,1.36,2.23,2.23,0,0,1,.08.45c.07.78.07,1.58.21,2.35a4.18,4.18,0,0,0,2.61,3.22c.56.25,1.14.46,1.7.7A2.15,2.15,0,0,1,315.33,416Z" transform="translate(-280.79 -402.73)"/><path class="cls-2" d="M295.14,424h-1.58l-1.36-2.31h0L290.88,424h-1.47l2-3.25-1.92-3h1.6l1.22,2.12h0l1.24-2.12H295l-1.94,3.06Z" transform="translate(-280.79 -402.73)"/><path class="cls-2" d="M296,417.68h1.33v3.07l-.14,1.32h0l.62-1.19,2.07-3.2h1.22V424h-1.33v-3.07l.14-1.32h0l-.62,1.2L297.24,424H296Z" transform="translate(-280.79 -402.73)"/><path class="cls-2" d="M305.12,418.9V424h-1.37V418.9H302v-1.22h4.77v1.22Z" transform="translate(-280.79 -402.73)"/></svg>