<svg id="Слой_1" data-name="Слой 1" xmlns="http://www.w3.org/2000/svg" viewBox="0 0 36.13 34.63"><defs><style>.cls-1{fill:#8fb04c;}.cls-2{fill:#fff;}</style></defs><path class="cls-1" d="M312.81,410.72a5.57,5.57,0,0,1,0,1c-.09.59-.25,1.17-.36,1.76a4.37,4.37,0,0,0,1.45,4.31l1.43,1.22a2,2,0,0,1,.06,3.16c-.42.38-.87.74-1.3,1.13a4.31,4.31,0,0,0-1.36,4.59c.14.54.3,1.09.43,1.64a2,2,0,0,1-1.42,2.45,2.32,2.32,0,0,1-.46.06c-.61.06-1.22.08-1.83.16a4.3,4.3,0,0,0-3.65,2.74c-.24.57-.43,1.15-.66,1.72a2,2,0,0,1-2.54,1.24,2.64,2.64,0,0,1-.38-.18c-.54-.3-1-.65-1.58-1a4.3,4.3,0,0,0-4.66.08c-.47.29-.92.6-1.39.89a2.06,2.06,0,0,1-2.88-.44,2.29,2.29,0,0,1-.29-.56,18,18,0,0,0-.8-1.86,4.25,4.25,0,0,0-3.57-2.3c-.61-.06-1.22-.06-1.83-.1a2,2,0,0,1-2-2,2.52,2.52,0,0,1,.08-.54c.12-.55.24-1.1.35-1.65a4.4,4.4,0,0,0-1.55-4.51c-.44-.37-.89-.73-1.33-1.11a2,2,0,0,1-.35-2.81,1.93,1.93,0,0,1,.35-.35c.44-.39.91-.75,1.34-1.15a4.32,4.32,0,0,0,1.32-4.51c-.14-.56-.31-1.11-.44-1.67a2,2,0,0,1,1.32-2.5,1.88,1.88,0,0,1,.57-.09c.7-.06,1.4-.08,2.09-.2a4.28,4.28,0,0,0,3.38-2.78c.21-.53.39-1.06.6-1.59a2,2,0,0,1,2.53-1.27,1.77,1.77,0,0,1,.53.27c.48.29,1,.6,1.44.88a4.33,4.33,0,0,0,4.7-.07c.5-.31,1-.64,1.48-.95a2,2,0,0,1,2.79.49,3,3,0,0,1,.21.4,22,22,0,0,0,1,2.15,4.19,4.19,0,0,0,3.51,2.2c.61.06,1.23.06,1.84.11A2.13,2.13,0,0,1,312.81,410.72Z" transform="translate(-280.01 -403.46)"/><path class="cls-2" d="M290.08,421l-.61-1.26h0v4.23h-1.29v-6.28h1.49l1.72,3,.61,1.26h0v-4.23h1.29V424H291.8Z" transform="translate(-280.01 -403.46)"/><path class="cls-2" d="M294.68,423.93v-6.28H299v1.22h-2.91v1.27h2.5v1.22h-2.5v1.36H299v1.21Z" transform="translate(-280.01 -403.46)"/><path class="cls-2" d="M301.13,423.93l-1.42-6.28h1.35l.59,3,.33,1.74h0l.4-1.74.69-3h1.49l.71,3,.38,1.74h0l.33-1.74.61-3H308l-1.46,6.28H305l-.8-3.4-.3-1.38h0l-.31,1.38-.8,3.4Z" transform="translate(-280.01 -403.46)"/></svg>