<svg id="Слой_1" data-name="Слой 1" xmlns="http://www.w3.org/2000/svg" viewBox="0 0 14 14"><defs><style>.cls-1{fill:#171717;}</style></defs><path class="cls-1" d="M305.07,420.72a7,7,0,0,1-7,6.93h0a7,7,0,0,1-3.32-.84l-3.68,1,1-3.6a6.95,6.95,0,1,1,13-3.46Zm-1.17,0a5.8,5.8,0,1,0-10.71,3.06l.13.22-.58,2.13,2.18-.57.21.12a5.73,5.73,0,0,0,2.94.81A5.83,5.83,0,0,0,303.9,420.72Zm-2.34,1.65a1.35,1.35,0,0,1-.1.83,1.77,1.77,0,0,1-1.17.82,3.42,3.42,0,0,1-2.08-.43,7.69,7.69,0,0,1-3-2.62,3.44,3.44,0,0,1-.71-1.79,1.93,1.93,0,0,1,.61-1.45.66.66,0,0,1,.46-.22h.33c.11,0,.25,0,.39.3s.49,1.2.54,1.28a.34.34,0,0,1,0,.31c-.33.66-.68.64-.51.94a4.78,4.78,0,0,0,2.36,2.07c.18.08.28.07.38-.05s.43-.5.55-.68.23-.15.39-.09,1,.48,1.18.57S301.52,422.29,301.56,422.37Z" transform="translate(-291.07 -413.78)"/></svg>