<svg id="Слой_1" data-name="Слой 1" xmlns="http://www.w3.org/2000/svg" viewBox="0 0 11.41 11.42"><defs><style>.cls-1{fill:#979697;}</style></defs><path class="cls-1" d="M295.38,424.17l-2.56,2.56-.7-.71,2.57-2.53a5,5,0,1,1,7.81-.14,5.2,5.2,0,0,1-1.5,1.3,5,5,0,0,1-3.87.45A4.85,4.85,0,0,1,295.38,424.17Zm7.15-3.87a4,4,0,1,0-4,4A4,4,0,0,0,302.53,420.3Z" transform="translate(-292.12 -415.31)"/><path class="cls-1" d="M299,420.8v1.49h-1V420.8h-1.49v-1H298v-1.5h1v1.49h1.5v1Z" transform="translate(-292.12 -415.31)"/></svg>